<?xml version="1.0" encoding="UTF-8" standalone="no"?>
<!-- Created with Inkscape (http://www.inkscape.org/) -->

<svg
   xmlns:dc="http://purl.org/dc/elements/1.1/"
   xmlns:cc="http://creativecommons.org/ns#"
   xmlns:rdf="http://www.w3.org/1999/02/22-rdf-syntax-ns#"
   xmlns:svg="http://www.w3.org/2000/svg"
   xmlns="http://www.w3.org/2000/svg"
   xmlns:sodipodi="http://sodipodi.sourceforge.net/DTD/sodipodi-0.dtd"
   xmlns:inkscape="http://www.inkscape.org/namespaces/inkscape"
   width="210mm"
   height="297mm"
   viewBox="0 0 210 297"
   version="1.1"
   id="svg8"
   inkscape:export-filename="/home/nchiang/repos/tutorbook/build/app/img/change_pic.png"
   inkscape:export-xdpi="96"
   inkscape:export-ydpi="96"
   inkscape:version="0.92.3 (2405546, 2018-03-11)"
   sodipodi:docname="change_pic.svg">
  <defs
     id="defs2" />
  <sodipodi:namedview
     id="base"
     pagecolor="#ffffff"
     bordercolor="#666666"
     borderopacity="1.0"
     inkscape:pageopacity="0.0"
     inkscape:pageshadow="2"
     inkscape:zoom="6.9673611"
     inkscape:cx="83.149606"
     inkscape:cy="83.149606"
     inkscape:document-units="mm"
     inkscape:current-layer="g913"
     showgrid="false"
     inkscape:window-width="1600"
     inkscape:window-height="845"
     inkscape:window-x="0"
     inkscape:window-y="27"
     inkscape:window-maximized="1" />
  <metadata
     id="metadata5">
    <rdf:RDF>
      <cc:Work
         rdf:about="">
        <dc:format>image/svg+xml</dc:format>
        <dc:type
           rdf:resource="http://purl.org/dc/dcmitype/StillImage" />
        <dc:title></dc:title>
      </cc:Work>
    </rdf:RDF>
  </metadata>
  <g
     inkscape:label="Layer 1"
     inkscape:groupmode="layer"
     id="layer1">
    <rect
       style="fill:#999999;fill-opacity:1;stroke:none;stroke-width:0.05090068;stroke-miterlimit:4;stroke-dasharray:none;stroke-opacity:1"
       id="rect815"
       width="24"
       height="24"
       x="10"
       y="263" />
    <g
       id="g913"
       transform="matrix(0.69021624,0,0,0.69021624,13.717405,266.71741)">
      <g
         id="g917"
         transform="translate(2.231307,-1.0081764)">
        <circle
           style="fill:#eeeeee;fill-opacity:1;stroke-width:0.7768693"
           cx="9.768693"
           cy="13.785046"
           r="2.4859817"
           id="circle896" />
        <path
           style="fill:#eeeeee;fill-opacity:1;stroke-width:0.7768693"
           inkscape:connector-curvature="0"
           d="M 7.438085,6.0163528 6.0164142,7.5700913 H 3.5537386 C 2.6991824,7.5700913 2,8.2692737 2,9.1238299 V 18.446261 C 2,19.300818 2.6991824,20 3.5537386,20 H 15.983647 c 0.854556,0 1.553739,-0.699182 1.553739,-1.553739 V 9.1238299 c 0,-0.8545562 -0.699183,-1.5537386 -1.553739,-1.5537386 H 13.520972 L 12.099301,6.0163528 Z M 9.7686929,17.669392 c -2.1441592,0 -3.8843464,-1.740187 -3.8843464,-3.884346 0,-2.14416 1.7401872,-3.8843468 3.8843464,-3.8843468 2.1441591,0 3.8843461,1.7401868 3.8843461,3.8843468 0,2.144159 -1.740187,3.884346 -3.8843461,3.884346 z"
           id="path898" />
      </g>
      <path
         id="path900"
         d="M 0,0 H 24 V 24 H 0 Z"
         inkscape:connector-curvature="0"
         style="fill:none" />
    </g>
  </g>
</svg>
