<?xml version="1.0" encoding="UTF-8" standalone="no"?>
<svg
   xmlns:dc="http://purl.org/dc/elements/1.1/"
   xmlns:cc="http://creativecommons.org/ns#"
   xmlns:rdf="http://www.w3.org/1999/02/22-rdf-syntax-ns#"
   xmlns:svg="http://www.w3.org/2000/svg"
   xmlns="http://www.w3.org/2000/svg"
   id="svg8"
   version="1.1"
   viewBox="0 0 110.101 110.101"
   height="110.101mm"
   width="110.101mm">
  <defs
     id="defs2" />
  <metadata
     id="metadata5">
    <rdf:RDF>
      <cc:Work
         rdf:about="">
        <dc:format>image/svg+xml</dc:format>
        <dc:type
           rdf:resource="http://purl.org/dc/dcmitype/StillImage" />
        <dc:title></dc:title>
      </cc:Work>
    </rdf:RDF>
  </metadata>
  <g
     transform="translate(-37.686821,-41.651484)"
     id="layer2">
    <circle
       r="55.050568"
       style="fill:#6200ee;fill-opacity:1;stroke-width:0.16873583"
       cy="96.70192"
       cx="92.737389"
       id="path3789" />
    <path
       id="path3861"
       d="m 100.50053,150.97112 c -0.002,-0.026 -1.012767,-5.99032 -2.246518,-13.25408 l -2.243188,-13.20682 -6.588673,-6.60418 -6.58867,-6.60418 6.509539,-6.38671 c 5.280041,-5.180407 6.440143,-6.407081 6.142114,-6.494571 -0.897305,-0.263437 -4.74518,-0.338517 -7.170999,-0.139937 -2.393937,0.195967 -6.897518,0.818014 -7.683281,1.061224 -0.268496,0.0831 -0.65256,-1.282654 -2.714543,-9.653146 -1.32099,-5.36247 -2.363366,-9.788376 -2.316392,-9.835353 0.04697,-0.047 0.318987,0.343757 0.604475,0.868294 1.980104,3.638099 5.978697,6.811981 10.215099,8.108215 9.455153,2.893062 19.699147,-3.002445 22.016927,-12.670918 0.20915,-0.872457 0.38217,-1.926451 0.38449,-2.342228 0.002,-0.415777 0.0709,-0.860894 0.15235,-0.989154 0.0849,-0.13359 1.95129,7.051191 4.36942,16.819934 2.3217,9.379236 4.29125,17.14261 4.37677,17.25196 0.0961,0.12281 -1.17804,1.53087 -3.33309,3.68357 l -3.48859,3.48476 -4.49001,-4.48709 -4.49001,-4.48709 -3.161701,3.16587 -3.161687,3.16587 3.116207,19.43611 c 1.713921,10.68987 3.116211,19.5983 3.116211,19.79651 0,0.28588 -0.13675,0.36038 -0.66145,0.36038 -0.36381,0 -0.66296,-0.0213 -0.6648,-0.0472 z"
       style="fill:#3700b3;fill-opacity:1;stroke-width:0.1889881" />
    <path
       id="path3863"
       d="m 87.747172,151.46122 c -5.162973,-0.61448 -8.221988,-1.26648 -12.284225,-2.61827 -3.436491,-1.14355 -6.36981,-2.41061 -9.201222,-3.97451 -2.057543,-1.13645 -5.664716,-3.48323 -6.754301,-4.39425 l -0.647489,-0.54137 -0.997426,-7.16668 c -0.538048,-2.80745 -1.102433,-5.52563 -1.344158,-8.36513 l 19.685529,-0.37015 h 20.414599 l 0.112459,1.04889 c 0.205298,0.94876 3.906092,26.01964 3.867392,26.05834 -0.32437,0.32437 -10.676359,0.58196 -12.851158,0.32313 z"
       style="fill:#3700b3;fill-opacity:1;stroke-width:0.1889881" />
    <path
       id="path3865"
       d="m 101.24639,150.59314 c -0.10857,-0.33245 -6.148481,-40.27734 -6.147987,-40.62179 5.3e-4,-0.28518 10.806457,11.44366 13.916437,14.79597 l 1.68259,1.81369 1.70679,10.22789 c 0.93873,5.62534 1.70679,10.30459 1.70679,10.39832 0,0.38753 -5.40795,2.21681 -9.07143,3.06848 -2.73706,0.63631 -3.69293,0.62441 -3.79319,0.31744 z"
       style="fill:#3700b3;fill-opacity:1;stroke-width:0.1889881" />
    <path
       id="path3867"
       d="m 111.76468,136.86845 -1.71252,-10.32405 4.68471,-4.21424 c 2.11405,-1.90174 8.3277,-8.40953 14.07377,-14.18386 8.51654,-8.558437 10.46449,-10.427135 10.53985,-10.111058 0.0508,0.21326 0.9855,5.242388 2.077,10.529098 l 1.98455,9.61219 -1.3135,2.67203 c -2.75718,5.6089 -6.00158,10.10595 -10.58717,14.67482 -4.84521,4.82756 -9.87705,8.39181 -15.53445,11.00367 l -2.49971,1.19462 z"
       style="fill:#3700b3;fill-opacity:1;stroke-width:0.1889881" />
  </g>
  <g
     transform="translate(-37.686821,-41.651484)"
     id="layer1">
    <g
       transform="matrix(4.3627161,0,0,4.3627161,43.430203,37.146689)"
       id="g3787">
      <path
         style="clip-rule:evenodd;fill:none;fill-rule:evenodd"
         d="M 0,0 H 24 V 24 H 0 Z"
         id="path3767" />
      <g
         style="clip-rule:evenodd;fill:#c8c8c8;fill-opacity:1;fill-rule:evenodd"
         id="g3773">
        <path
           style="fill:#c8c8c8;fill-opacity:1"
           d="m 9,17 3,-2.94 C 11.61,14.02 11.32,14 11,14 8.33,14 3,15.34 3,18 v 2 h 9 z m 2,-5 c 2.21,0 4,-1.79 4,-4 C 15,5.79 13.21,4 11,4 8.79,4 7,5.79 7,8 c 0,2.21 1.79,4 4,4"
           id="path3769" />
        <path
           style="fill:#c8c8c8;fill-opacity:1"
           d="M 15.47,20.5 12,17 l 1.4,-1.41 2.07,2.08 5.13,-5.17 1.4,1.41 z"
           id="path3771" />
      </g>
    </g>
  </g>
</svg>
