<?xml version="1.0" encoding="UTF-8" standalone="no"?>
<svg
   xmlns:dc="http://purl.org/dc/elements/1.1/"
   xmlns:cc="http://creativecommons.org/ns#"
   xmlns:rdf="http://www.w3.org/1999/02/22-rdf-syntax-ns#"
   xmlns:svg="http://www.w3.org/2000/svg"
   xmlns="http://www.w3.org/2000/svg"
   xmlns:sodipodi="http://sodipodi.sourceforge.net/DTD/sodipodi-0.dtd"
   xmlns:inkscape="http://www.inkscape.org/namespaces/inkscape"
   viewBox="0 0 512 512"
   version="1.1"
   id="svg6460"
   sodipodi:docname="facebook.svg"
   inkscape:version="0.92.3 (2405546, 2018-03-11)"
   inkscape:export-filename="/home/nchiang/repos/tutorbook/ads/emails/img/fb.png"
   inkscape:export-xdpi="96"
   inkscape:export-ydpi="96">
  <metadata
     id="metadata6466">
    <rdf:RDF>
      <cc:Work
         rdf:about="">
        <dc:format>image/svg+xml</dc:format>
        <dc:type
           rdf:resource="http://purl.org/dc/dcmitype/StillImage" />
        <dc:title />
      </cc:Work>
    </rdf:RDF>
  </metadata>
  <defs
     id="defs6464" />
  <sodipodi:namedview
     pagecolor="#ffffff"
     bordercolor="#666666"
     borderopacity="1"
     objecttolerance="10"
     gridtolerance="10"
     guidetolerance="10"
     inkscape:pageopacity="0"
     inkscape:pageshadow="2"
     inkscape:window-width="1600"
     inkscape:window-height="845"
     id="namedview6462"
     showgrid="false"
     inkscape:zoom="0.921875"
     inkscape:cx="-40.997752"
     inkscape:cy="298.28262"
     inkscape:window-x="0"
     inkscape:window-y="27"
     inkscape:window-maximized="1"
     inkscape:current-layer="svg6460" />
  <rect
     style="fill:#5d16ee;fill-opacity:1;stroke:none;stroke-width:1.5;stroke-miterlimit:4;stroke-dasharray:none;stroke-opacity:1"
     id="rect7011"
     width="512"
     height="512"
     x="0"
     y="1.0847455" />
  <path
     d="M426.8 64H85.2C73.5 64 64 73.5 64 85.2v341.6c0 11.7 9.5 21.2 21.2 21.2H256V296h-45.9v-56H256v-41.4c0-49.6 34.4-76.6 78.7-76.6 21.2 0 44 1.6 49.3 2.3v51.8h-35.3c-24.1 0-28.7 11.4-28.7 28.2V240h57.4l-7.5 56H320v152h106.8c11.7 0 21.2-9.5 21.2-21.2V85.2c0-11.7-9.5-21.2-21.2-21.2z"
     id="path6458"
     style="fill:#ffffff;fill-opacity:1" />
</svg>
