<?xml version="1.0" encoding="utf-8"?>
<!-- Generator: Adobe Illustrator 16.0.4, SVG Export Plug-In . SVG Version: 6.00 Build 0)  -->
<!DOCTYPE svg PUBLIC "-//W3C//DTD SVG 1.1//EN" "http://www.w3.org/Graphics/SVG/1.1/DTD/svg11.dtd">
<svg version="1.1" id="Gunn_Logo" xmlns="http://www.w3.org/2000/svg" xmlns:xlink="http://www.w3.org/1999/xlink" x="0px" y="0px"
	 width="201px" height="69px" viewBox="0 0 201 69" enable-background="new 0 0 201 69" xml:space="preserve">
<g id="Gunn_">
	<g enable-background="new    ">
		<path d="M93.761,14.599c1.239,0.538,2.316,1.238,3.231,2.154l-2.854,2.854c-1.185-1.185-2.639-1.777-4.308-1.777
			c-1.67,0-3.124,0.593-4.309,1.777c-1.185,1.185-1.777,2.64-1.777,4.309c0,1.67,0.593,3.124,1.777,4.309
			c1.185,1.185,2.639,1.777,4.309,1.777c1.346,0,2.477-0.377,3.554-1.131c1.077-0.755,1.778-1.724,2.208-2.908H89.83v-4.04h5.762
			h2.37h1.832c0.107,0.646,0.214,1.292,0.214,2.046c0,2.801-1.023,5.225-3.016,7.163C95,33.072,92.63,34.095,89.83,34.095
			c-2.801,0-5.225-0.97-7.163-2.962c-1.939-1.993-2.962-4.362-2.962-7.163c0-2.8,0.97-5.171,2.962-7.163
			c1.993-1.993,4.362-3.017,7.163-3.017C91.229,13.791,92.522,14.061,93.761,14.599z"/>
		<path d="M118.751,13.791v8.133v4.04c0,2.262-0.808,4.146-2.37,5.763c-1.561,1.616-3.5,2.369-5.763,2.369
			c-2.262,0-4.147-0.808-5.762-2.369c-1.617-1.562-2.37-3.501-2.37-5.763v-4.04v-8.133h4.093v8.133v3.662v0.431
			c0,1.131,0.377,2.1,1.184,2.855c0.809,0.754,1.778,1.185,2.855,1.185c1.13,0,2.047-0.377,2.854-1.185
			c0.81-0.808,1.187-1.777,1.187-2.855v-0.431v-3.662v-8.133H118.751z"/>
		<path d="M134.152,24.886V13.791h4.095v20.358L126.021,23v11.149h-4.093V13.791L134.152,24.886z"/>
		<path d="M153.973,24.886V13.791h4.093v20.358L145.842,23v11.149h-4.095V13.791L153.973,24.886z"/>
	</g>
</g>
<g id="HIGH_SCHOOL">
	<g enable-background="new    ">
		<path d="M83.098,36.572v4.094h2.746v-4.094h1.832v10.181h-1.832v-4.095h-2.746v4.095h-1.832V36.572H83.098z"/>
		<path d="M89.075,36.572h1.832v10.181h-1.832V36.572z"/>
		<path d="M98.824,37.004c0.538,0.27,1.023,0.646,1.454,1.076l-1.292,1.454c-0.539-0.592-1.185-0.914-1.938-0.914
			c-0.754,0-1.401,0.322-1.939,0.914c-0.539,0.595-0.808,1.293-0.808,2.155s0.269,1.562,0.808,2.154
			c0.539,0.592,1.185,0.916,1.939,0.916c0.592,0,1.13-0.216,1.615-0.593c0.484-0.378,0.808-0.862,0.969-1.454h-2.584v-2.047h2.584
			h1.077h0.862c0.055,0.323,0.108,0.646,0.108,1.023c0,1.4-0.433,2.585-1.347,3.608c-0.916,0.969-1.992,1.508-3.231,1.508
			c-1.238,0-2.316-0.485-3.231-1.508c-0.916-1.023-1.346-2.208-1.346-3.608c0-1.399,0.431-2.585,1.346-3.609
			c0.916-1.023,1.993-1.508,3.231-1.508C97.639,36.572,98.23,36.734,98.824,37.004z"/>
		<path d="M104.531,36.572v4.094h2.748v-4.094h1.831v10.181h-1.831v-4.095h-2.748v4.095H102.7V36.572H104.531z"/>
		<path d="M116.057,42.442c-0.268-0.107-0.591-0.269-0.861-0.484c-0.269-0.215-0.591-0.538-0.809-0.914
			c-0.214-0.378-0.375-0.863-0.375-1.401c0-0.861,0.27-1.562,0.809-2.153c0.538-0.594,1.184-0.917,1.938-0.917
			s1.401,0.323,1.939,0.917c0.538,0.591,0.808,1.292,0.808,2.153h-1.832c0-0.27-0.107-0.538-0.269-0.7
			c-0.161-0.161-0.377-0.322-0.646-0.322c-0.269,0-0.483,0.106-0.646,0.322c-0.161,0.216-0.269,0.431-0.269,0.7
			c0,0.376,0.107,0.647,0.377,0.809s0.483,0.323,0.592,0.323c0.054,0,0.216,0.107,0.538,0.162c0.323,0.053,0.594,0.268,0.917,0.483
			c0.322,0.215,0.592,0.485,0.861,0.861c0.269,0.377,0.377,0.809,0.377,1.399c0,0.863-0.27,1.562-0.808,2.156
			c-0.538,0.592-1.186,0.916-1.939,0.916s-1.399-0.324-1.938-0.916c-0.539-0.594-0.809-1.293-0.809-2.156h1.831
			c0,0.27,0.107,0.541,0.269,0.702c0.163,0.214,0.378,0.322,0.646,0.322c0.27,0,0.485-0.108,0.646-0.322
			c0.161-0.216,0.269-0.433,0.269-0.702c0-0.43-0.161-0.699-0.484-0.807c-0.323-0.106-0.539-0.216-0.646-0.269
			C116.489,42.605,116.327,42.552,116.057,42.442z"/>
		<path d="M127.152,37.004c0.539,0.27,1.022,0.646,1.454,1.076l-1.292,1.454c-0.539-0.592-1.185-0.914-1.939-0.914
			c-0.754,0-1.399,0.322-1.939,0.914c-0.538,0.595-0.809,1.293-0.809,2.155s0.271,1.562,0.809,2.154
			c0.54,0.592,1.186,0.916,1.939,0.916c0.755,0,1.4-0.324,1.939-0.916l1.292,1.454c-0.432,0.483-0.915,0.809-1.454,1.077
			c-0.539,0.27-1.131,0.378-1.777,0.378c-1.238,0-2.315-0.486-3.231-1.51c-0.915-1.021-1.347-2.208-1.347-3.608
			s0.432-2.585,1.347-3.607c0.916-1.023,1.993-1.509,3.231-1.509C126.021,36.572,126.613,36.734,127.152,37.004z"/>
		<path d="M131.676,36.572v4.094h2.748v-4.094h1.83v10.181h-1.83v-4.095h-2.748v4.095h-1.83V36.572H131.676z"/>
		<path d="M145.464,38.08c0.915,1.024,1.347,2.21,1.347,3.609c0,1.4-0.432,2.585-1.347,3.608c-0.915,0.969-1.992,1.508-3.231,1.508
			c-1.238,0-2.316-0.485-3.23-1.508c-0.916-0.971-1.347-2.208-1.347-3.608c0-1.399,0.431-2.585,1.347-3.609
			c0.914-1.023,1.992-1.508,3.23-1.508C143.526,36.572,144.603,37.111,145.464,38.08z M140.294,39.534
			c-0.54,0.595-0.809,1.293-0.809,2.155s0.269,1.562,0.809,2.154c0.539,0.592,1.185,0.916,1.938,0.916s1.4-0.324,1.94-0.916
			c0.537-0.593,0.807-1.292,0.807-2.154s-0.27-1.561-0.807-2.155c-0.54-0.592-1.187-0.914-1.94-0.914S140.833,38.942,140.294,39.534
			z"/>
		<path d="M155.751,38.08c0.916,1.024,1.346,2.21,1.346,3.609c0,1.4-0.43,2.585-1.346,3.608c-0.915,0.969-1.993,1.508-3.23,1.508
			c-1.241,0-2.317-0.485-3.232-1.508c-0.916-1.023-1.346-2.208-1.346-3.608c0-1.399,0.43-2.585,1.346-3.609
			c0.915-1.023,1.991-1.508,3.232-1.508C153.812,36.572,154.889,37.111,155.751,38.08z M150.58,39.534
			c-0.538,0.595-0.808,1.293-0.808,2.155s0.27,1.562,0.808,2.154c0.538,0.592,1.186,0.916,1.94,0.916
			c0.752,0,1.397-0.324,1.938-0.916c0.539-0.593,0.807-1.292,0.807-2.154s-0.268-1.561-0.807-2.155
			c-0.54-0.592-1.186-0.914-1.938-0.914C151.766,38.62,151.118,38.942,150.58,39.534z"/>
		<path d="M160.059,36.572v8.133h3.663v2.048h-5.493V36.572H160.059z"/>
	</g>
</g>
<g id="Helmet_1_">
	<g id="Helmet_Paths">
		<path fill-rule="evenodd" clip-rule="evenodd" fill="#BF1E2E" d="M70.871,43.287c0.18,0.127,0.352,0.265,0.541,0.377
			c1.23,0.732,2.466,1.457,3.697,2.188c0.802,0.477,0.849,0.716,0.449,1.596c-0.565,1.245-1.196,2.471-1.635,3.761
			C72.67,54.893,71.5,58.603,70.3,62.303c-0.089,0.275-0.163,0.554-0.244,0.831c-0.079,0.008-0.156,0.02-0.234,0.029
			c-0.224-0.649-0.504-1.285-0.663-1.949c-1.028-4.317-0.457-8.493,1.177-12.564c0.505-1.26,0.509-1.258-0.637-1.956
			c-2.135-1.304-4.269-2.608-6.403-3.913c-0.619-0.378-0.784-0.345-1.049,0.324c-0.584,1.466-0.13,2.77,0.719,3.978
			c0.67,0.953,1.59,1.602,2.665,2.036c0.234,0.097,0.47,0.19,0.771,0.312c-1.978,5.906-1.816,11.784,0.136,17.699
			c-0.188-0.009-0.295,0.011-0.384-0.021c-5.986-2.16-11.346-5.287-15.581-10.134c-4.289-4.91-5.178-10.537-3.402-16.678
			c0.354-1.226,0.907-2.396,1.366-3.591c0.05-0.131,0.086-0.269,0.013-0.5c-0.175,0.156-0.365,0.301-0.522,0.474
			c-2.347,2.586-3.682,5.603-3.7,9.115c-0.009,1.92,0.154,3.841,0.242,5.761c0.009,0.202,0.034,0.402,0.069,0.815
			c-0.875-0.645-1.614-1.139-2.297-1.704c-1.646-1.354-3.29-2.716-4.891-4.124c-2.063-1.813-2.902-4.083-2.745-6.862
			c0.278-4.916,1.954-9.15,5.757-12.355c2.445-2.061,5.276-3.476,8.401-4.244c5.287-1.299,10.499-1.052,15.533,1.05
			c1.718,0.718,3.271,1.829,4.915,2.734c0.396,0.218,0.838,0.396,1.28,0.475c0.671,0.118,1.361,0.176,2.043,0.177
			c0.696,0,1.052,0.311,1.336,0.933c1.278,2.799,2.002,5.738,2.159,8.794c0.107,2.066,0.018,4.143,0.01,6.215
			c-0.001,0.21-0.044,0.419-0.082,0.748c-1.737-0.372-3.426-0.733-5.114-1.098C70.919,43.169,70.895,43.229,70.871,43.287z
			 M59.506,59.652c0.04-0.176,0.073-0.254,0.073-0.332c0-1.017,0.012-2.032-0.027-3.048c-0.006-0.17-0.203-0.396-0.371-0.487
			c-1.449-0.787-2.695-1.818-3.715-3.106c-3.058-3.86-4.102-8.28-3.594-13.123c0.026-0.249,0.004-0.502,0.004-0.911
			c-1.588,3.41-1.926,9.08,0.27,13.733C53.704,55.68,56.063,58.169,59.506,59.652z M38.94,39.77
			c2.712-7.724,8.168-11.929,16.448-12.706c-3.317-1.204-8.474-0.541-12.046,2.514C40.199,32.266,38.564,35.588,38.94,39.77z"/>
		<path fill-rule="evenodd" clip-rule="evenodd" fill="#BF1E2E" d="M79.958,8.876c-1.126,1-2.237,1.996-3.36,2.979
			c-1.077,0.943-2.172,1.867-3.245,2.815c-0.269,0.238-0.469,0.261-0.782,0.057c-6.617-4.333-13.832-5.564-21.54-4.058
			c-3.218,0.628-6.194,1.917-9.022,3.567c-5.711,3.332-9.671,8.119-11.924,14.323c-0.247,0.682-0.408,1.395-0.631,2.085
			c-0.061,0.188-0.17,0.456-0.318,0.503c-0.743,0.242-1.507,0.423-2.435,0.67c0.166-1.347,0.27-2.554,0.467-3.746
			c1.049-6.324,3.957-11.647,8.701-15.957c4.783-4.343,10.485-6.832,16.731-8.182c5.657-1.223,11.328-1.3,16.985-0.01
			c3.644,0.83,7.056,2.2,10.018,4.549c0.084,0.066,0.168,0.131,0.248,0.204C79.881,8.703,79.893,8.75,79.958,8.876z"/>
		<path fill-rule="evenodd" clip-rule="evenodd" fill="#BF1E2E" d="M32.887,30.172c2.691-8.063,8.198-13.141,15.978-15.727
			c7.531-2.504,14.773-1.589,21.709,2.622c-0.664,0.585-1.239,1.054-1.768,1.568c-0.87,0.846-1.728,1.708-2.555,2.596
			c-0.264,0.283-0.449,0.34-0.811,0.177c-4.99-2.249-10.193-2.551-15.51-1.602c-3.058,0.546-5.907,1.657-8.6,3.225
			c-2.474,1.441-4.504,3.317-5.987,5.749c-0.432,0.708-0.926,1.122-1.719,1.228C33.435,30.033,33.251,30.089,32.887,30.172z"/>
		<path fill-rule="evenodd" clip-rule="evenodd" fill="#BF1E2E" d="M33.809,46.737c2.553,4.002,5.865,7.013,10.151,9.221
			c-0.429,0.146-0.659,0.227-0.891,0.303c-0.832,0.276-1.707,0.462-2.482,0.849c-0.862,0.427-1.393,0.14-2.007-0.45
			c-2.654-2.552-4.251-5.638-4.816-9.268c-0.02-0.126-0.03-0.256-0.038-0.382C33.724,46.97,33.748,46.931,33.809,46.737z"/>
	</g>
</g>
<g id="Titans">
	<path fill="#BF1E2E" d="M89.56,58.762c-0.323,1.023-0.646,1.94-0.916,2.748l-0.592,1.776h-1.832
		c-0.054-0.216-0.161-0.538-0.269-0.862c-0.108-0.323-0.215-0.754-0.377-1.238h-0.054c-0.162,0.538-0.27,0.97-0.431,1.293
		c-0.107,0.323-0.162,0.592-0.269,0.808h-1.777l-0.485-1.509c-0.269-0.808-0.592-1.83-1.023-3.016l2.046-0.537
		c0.054,0.16,0.107,0.429,0.215,0.807s0.215,0.863,0.377,1.508h0.054l0.323-1.291c0.108-0.378,0.162-0.647,0.215-0.81h1.562
		c0.054,0.215,0.108,0.484,0.215,0.754c0.107,0.269,0.216,0.702,0.377,1.347h0.054c0.161-0.539,0.27-1.022,0.323-1.4
		c0.054-0.377,0.162-0.646,0.216-0.914L89.56,58.762z"/>
	<path fill="#BF1E2E" d="M94.515,63.286h-4.309v-0.754c0-0.377,0-1.022,0-1.886c0-0.27,0-0.646,0-1.076v-1.238h4.255v1.453h-2.316
		v0.538h2.262v1.024h-2.262v0.538h2.37V63.286z"/>
	<path fill="#BF1E2E" d="M102.755,62.855l-2.047,0.539c-0.054-0.162-0.054-0.324-0.108-0.539c-0.054-0.216-0.106-0.323-0.106-0.432
		h-1.347c0,0.055-0.054,0.216-0.108,0.432c-0.054,0.215-0.107,0.377-0.161,0.539l-1.939-0.539l0.754-1.832
		c0.431-1.076,0.753-1.938,1.077-2.691h2.261c0.323,0.86,0.701,1.776,1.077,2.799L102.755,62.855z M100.169,61.292l-0.161-0.699
		c-0.053-0.27-0.107-0.484-0.161-0.698l0,0c-0.054,0.214-0.108,0.429-0.216,0.752s-0.107,0.484-0.162,0.646H100.169L100.169,61.292z
		"/>
	<path fill="#BF1E2E" d="M108.787,62.908l-1.993,0.539l-0.484-0.808c-0.162-0.323-0.485-0.754-0.808-1.4l0.055-0.108
		c0.107,0,0.161-0.053,0.268-0.107c0.108-0.054,0.161-0.107,0.27-0.16c0.054-0.055,0.108-0.161,0.162-0.271
		c0-0.054,0.054-0.161,0.054-0.27c0-0.106,0-0.215-0.054-0.268c-0.054-0.108-0.108-0.161-0.216-0.217
		c-0.055-0.054-0.161-0.054-0.216-0.054c-0.054,0-0.16,0-0.214,0h-0.108c0,0.054,0,0.215,0,0.432v2.154c0,0.323,0,0.646,0,0.97
		h-2.046v-0.862c0-0.323,0-0.916,0-1.776c0-0.271,0-0.646,0-1.078v-1.239h1.185c0.592,0,1.023,0,1.399,0
		c0.324,0,0.646,0.054,0.97,0.161c0.378,0.055,0.753,0.27,1.023,0.539c0.216,0.215,0.269,0.485,0.323,0.81
		c0,0.269-0.055,0.482-0.16,0.698c-0.108,0.216-0.271,0.377-0.434,0.485l0,0l0.434,0.646L108.787,62.908z"/>
	<path fill="#BF1E2E" d="M113.579,63.286h-4.254v-0.754c0-0.377,0-1.022,0-1.886c0-0.27,0-0.646,0-1.076v-1.238h4.254v1.453h-2.314
		v0.538h2.262v1.024h-2.262v0.538h2.37L113.579,63.286z"/>
	<path fill="#BF1E2E" d="M120.851,60h-1.399v0.646c0,0.217,0,0.432,0,0.701c0,0.43,0,0.753,0,1.076v0.862h-2.047
		c0-0.216,0-0.484,0-0.754v-1.83c0-0.218,0-0.433,0-0.702h-1.4v-1.668h4.847V60z"/>
	<path fill="#BF1E2E" d="M123.49,63.286h-2.047c0-0.27,0-0.646,0-1.078c0-0.431,0-0.969,0-1.562c0-0.27,0-0.646,0-1.076
		c0-0.432,0-0.809,0-1.238h2.047c0,0.321,0,0.699,0,1.077c0,0.376,0,0.808,0,1.184c0,0.646,0,1.131,0,1.455
		C123.49,62.371,123.49,62.855,123.49,63.286z"/>
	<path fill="#BF1E2E" d="M129.037,60h-1.4c0,0.217,0,0.432,0,0.646v1.777c0,0.324,0,0.593,0,0.862h-2.046v-0.754
		c0-0.271,0-0.646,0-1.185v-0.646c0-0.218,0-0.433,0-0.702h-1.4v-1.668h4.847V60z"/>
	<path fill="#BF1E2E" d="M134.961,62.855l-2.045,0.539c-0.055-0.162-0.055-0.324-0.108-0.539c-0.054-0.216-0.108-0.323-0.108-0.432
		h-1.346c0,0.055-0.053,0.216-0.107,0.432c-0.055,0.215-0.107,0.377-0.162,0.539l-1.938-0.539l0.753-1.832
		c0.432-1.076,0.755-1.938,1.078-2.691h2.262c0.324,0.86,0.7,1.776,1.077,2.799L134.961,62.855z M132.376,61.292l-0.161-0.699
		c-0.054-0.27-0.107-0.484-0.162-0.698l0,0c-0.053,0.214-0.105,0.429-0.215,0.752c-0.108,0.323-0.108,0.484-0.162,0.646H132.376
		L132.376,61.292z"/>
	<path fill="#BF1E2E" d="M140.887,58.385v1.239c0,0.323,0,0.646,0,0.969s0,0.808,0,1.293v1.076l-1.401,0.54
		c-0.483-0.594-0.861-1.131-1.238-1.509c-0.377-0.431-0.646-0.701-0.755-0.862h-0.054c0,0.379,0,0.755,0,1.24v1.023h-1.884
		c0-0.216,0-0.539,0-1.023c0-0.485,0-0.971,0-1.562c0-0.216,0-0.539,0-0.861c0-0.323,0-0.699,0-1.077l1.454-0.538
		c0.215,0.214,0.43,0.538,0.754,0.86c0.323,0.324,0.7,0.808,1.239,1.347l0,0c0-0.27,0-0.645,0-0.969c0-0.322,0-0.7,0-1.078
		L140.887,58.385z"/>
	<path fill="#BF1E2E" d="M146.272,61.777c0,0.271-0.108,0.539-0.27,0.755c-0.216,0.216-0.433,0.43-0.7,0.538
		c-0.323,0.108-0.647,0.216-1.023,0.271c-0.377,0.054-0.753,0.054-1.131,0.106h-0.81h-0.483l-0.216-1.615h0.431h0.485h0.323h0.377
		c0.108,0,0.216,0,0.322-0.055c0.055,0,0.055-0.054,0.055-0.107s-0.055-0.107-0.106-0.107c-0.108-0.053-0.217-0.107-0.325-0.162
		l-0.375-0.161c-0.162-0.054-0.271-0.108-0.379-0.216c-0.215-0.107-0.377-0.269-0.483-0.484c-0.108-0.162-0.162-0.376-0.162-0.592
		c0-0.162,0.054-0.271,0.054-0.431c0.054-0.107,0.108-0.27,0.215-0.324c0.322-0.27,0.646-0.484,1.078-0.592
		c0.592-0.162,1.131-0.216,1.722-0.216h0.7h0.325L146.11,60h-0.323h-0.755h-0.322c-0.107,0-0.161,0-0.269,0.056
		c-0.056,0-0.108,0.053-0.108,0.107c0,0.054,0.053,0.106,0.108,0.16c0.107,0.054,0.214,0.108,0.322,0.108l0.378,0.161
		c0.107,0.054,0.269,0.109,0.375,0.162c0.216,0.108,0.379,0.269,0.486,0.484C146.217,61.348,146.272,61.562,146.272,61.777z"/>
</g>
</svg>
